{
  "accessors": [
    {
      "bufferView": 2,
      "componentType": 5126,
      "count": 311,
      "max": [
        1.0,
        1.4653199911117554,
        2.066230058670044
      ],
      "min": [
        -1.0,
        -1.0,
        -0.17193999886512756
      ],
      "type": "VEC3"
    },
    {
      "bufferView": 2,
      "byteOffset": 3732,
      "componentType": 5126,
      "count": 311,
      "max": [
        1.0,
        1.0,
        1.0
      ],
      "min": [
        -1.0,
        -1.0,
        -1.0
      ],
      "type": "VEC3"
    },
    {
      "bufferView": 1,
      "componentType": 5126,
      "count": 311,
      "max": [
        0.5528500080108643,
        0.4612100124359131
      ],
      "min": [
        0.0,
        0.0
      ],
      "type": "VEC2"
    },
    {
      "bufferView": 0,
      "componentType": 5125,
      "count": 1308,
      "type": "SCALAR"
    },
    {
      "bufferView": 2,
      "byteOffset": 7464,
      "componentType": 5126,
      "count": 22584,
      "max": [
        0.4882499873638153,
        0.7989500164985657,
        1.8265299797058105
      ],
      "min": [
        -0.4882499873638153,
        -0.6611499786376953,
        -0.03440000116825104
      ],
      "type": "VEC3"
    },
    {
      "bufferView": 2,
      "byteOffset": 278472,
      "componentType": 5126,
      "count": 22584,
      "max": [
        1.0,
        1.0,
        1.0
      ],
      "min": [
        -1.0,
        -1.0,
        -1.0
      ],
      "type": "VEC3"
    },
    {
      "bufferView": 3,
      "componentType": 5126,
      "count": 22584,
      "max": [
        1.0,
        1.0,
        0.945650577545166,
        1.0
      ],
      "min": [
        -1.0,
        -1.0,
        -0.9447330832481384,
        -1.0
      ],
      "type": "VEC4"
    },
    {
      "bufferView": 1,
      "byteOffset": 2488,
      "componentType": 5126,
      "count": 22584,
      "max": [
        1.8234000205993652,
        2.5520899295806885
      ],
      "min": [
        -0.9586399793624878,
        -1.2408699989318848
      ],
      "type": "VEC2"
    },
    {
      "bufferView": 1,
      "byteOffset": 183160,
      "componentType": 5126,
      "count": 22584,
      "max": [
        1.8234000205993652,
        2.5520899295806885
      ],
      "min": [
        -0.9586399793624878,
        -1.2408699989318848
      ],
      "type": "VEC2"
    },
    {
      "bufferView": 0,
      "byteOffset": 5232,
      "componentType": 5125,
      "count": 90432,
      "type": "SCALAR"
    },
    {
      "bufferView": 2,
      "byteOffset": 549480,
      "componentType": 5126,
      "count": 1535,
      "max": [
        0.47018998861312866,
        1.2068099975585938,
        1.6511600017547607
      ],
      "min": [
        -0.9248600006103516,
        -0.512910008430481,
        0.013980000279843807
      ],
      "type": "VEC3"
    },
    {
      "bufferView": 2,
      "byteOffset": 567900,
      "componentType": 5126,
      "count": 1535,
      "max": [
        1.0,
        1.0,
        0.9999960064888
      ],
      "min": [
        -1.0,
        -1.0,
        -0.9999974370002747
      ],
      "type": "VEC3"
    },
    {
      "bufferView": 3,
      "byteOffset": 361344,
      "componentType": 5126,
      "count": 1535,
      "max": [
        1.0,
        1.0,
        0.9996491074562073,
        1.0
      ],
      "min": [
        -0.999999463558197,
        -1.0,
        -0.9998750686645508,
        -1.0
      ],
      "type": "VEC4"
    },
    {
      "bufferView": 1,
      "byteOffset": 363832,
      "componentType": 5126,
      "count": 1535,
      "max": [
        1.138260006904602,
        1.6771199703216553
      ],
      "min": [
        -0.09328000247478485,
        -0.6634200215339661
      ],
      "type": "VEC2"
    },
    {
      "bufferView": 1,
      "byteOffset": 376112,
      "componentType": 5126,
      "count": 1535,
      "max": [
        1.138260006904602,
        1.6771199703216553
      ],
      "min": [
        -0.09328000247478485,
        -0.6634200215339661
      ],
      "type": "VEC2"
    },
    {
      "bufferView": 0,
      "byteOffset": 366960,
      "componentType": 5125,
      "count": 6528,
      "type": "SCALAR"
    },
    {
      "bufferView": 2,
      "byteOffset": 586320,
      "componentType": 5126,
      "count": 711,
      "max": [
        0.2535499930381775,
        0.2780199944972992,
        0.17874999344348907
      ],
      "min": [
        -0.2535499930381775,
        -0.6311399936676025,
        0.08358000218868256
      ],
      "type": "VEC3"
    },
    {
      "bufferView": 2,
      "byteOffset": 594852,
      "componentType": 5126,
      "count": 711,
      "max": [
        0.9972414970397949,
        0.5267327427864075,
        0.9802199006080627
      ],
      "min": [
        -0.9981582760810852,
        -0.858414351940155,
        -0.900081217288971
      ],
      "type": "VEC3"
    },
    {
      "bufferView": 3,
      "byteOffset": 385904,
      "componentType": 5126,
      "count": 711,
      "max": [
        1.0,
        0.9999973177909851,
        0.8108426332473755,
        1.0
      ],
      "min": [
        -0.6027785539627075,
        -0.25798147916793823,
        -0.8404136896133423,
        -1.0
      ],
      "type": "VEC4"
    },
    {
      "bufferView": 1,
      "byteOffset": 388392,
      "componentType": 5126,
      "count": 711,
      "max": [
        1.0759799480438232,
        1.0585600137710571
      ],
      "min": [
        -0.07598000019788742,
        -0.011920000426471233
      ],
      "type": "VEC2"
    },
    {
      "bufferView": 1,
      "byteOffset": 394080,
      "componentType": 5126,
      "count": 711,
      "max": [
        1.0759799480438232,
        1.0585600137710571
      ],
      "min": [
        -0.07598000019788742,
        -0.011920000426471233
      ],
      "type": "VEC2"
    },
    {
      "bufferView": 0,
      "byteOffset": 393072,
      "componentType": 5125,
      "count": 3024,
      "type": "SCALAR"
    },
    {
      "bufferView": 2,
      "byteOffset": 603384,
      "componentType": 5126,
      "count": 127,
      "max": [
        -0.009750000201165676,
        -0.6191099882125854,
        0.10056000202894211
      ],
      "min": [
        -0.02022000029683113,
        -0.6248000264167786,
        0.09313999861478806
      ],
      "type": "VEC3"
    },
    {
      "bufferView": 2,
      "byteOffset": 604908,
      "componentType": 5126,
      "count": 127,
      "max": [
        0.8622921109199524,
        0.2663494050502777,
        0.9979465007781982
      ],
      "min": [
        -0.981386661529541,
        -0.9975200891494751,
        -0.6840609908103943
      ],
      "type": "VEC3"
    },
    {
      "bufferView": 1,
      "byteOffset": 399768,
      "componentType": 5126,
      "count": 127,
      "max": [
        0.9968199729919434,
        0.9974200129508972
      ],
      "min": [
        0.42069000005722046,
        0.876479983329773
      ],
      "type": "VEC2"
    },
    {
      "bufferView": 0,
      "byteOffset": 405168,
      "componentType": 5125,
      "count": 480,
      "type": "SCALAR"
    },
    {
      "bufferView": 2,
      "byteOffset": 606432,
      "componentType": 5126,
      "count": 813,
      "max": [
        0.23301999270915985,
        0.2574799954891205,
        0.17781999707221985
      ],
      "min": [
        -0.23301999270915985,
        -0.20858000218868256,
        0.1677899956703186
      ],
      "type": "VEC3"
    },
    {
      "bufferView": 2,
      "byteOffset": 616188,
      "componentType": 5126,
      "count": 813,
      "max": [
        0.9218840599060059,
        0.9218840599060059,
        1.0
      ],
      "min": [
        -0.9218840599060059,
        -0.9218840599060059,
        0.38746485114097595
      ],
      "type": "VEC3"
    },
    {
      "bufferView": 1,
      "byteOffset": 400784,
      "componentType": 5126,
      "count": 813,
      "max": [
        1.2035399675369263,
        1.2091399431228638
      ],
      "min": [
        -0.20353999733924866,
        -0.40195998549461365
      ],
      "type": "VEC2"
    },
    {
      "bufferView": 0,
      "byteOffset": 407088,
      "componentType": 5125,
      "count": 3264,
      "type": "SCALAR"
    },
    {
      "bufferView": 2,
      "byteOffset": 625944,
      "componentType": 5126,
      "count": 6194,
      "max": [
        0.3296799957752228,
        0.3540099859237671,
        0.8645099997520447
      ],
      "min": [
        -0.3296799957752228,
        -0.30535998940467834,
        0.1793300062417984
      ],
      "type": "VEC3"
    },
    {
      "bufferView": 2,
      "byteOffset": 700272,
      "componentType": 5126,
      "count": 6194,
      "max": [
        0.9998632073402405,
        0.9999690651893616,
        1.0
      ],
      "min": [
        -0.9998731017112732,
        -0.9998734593391418,
        -1.0
      ],
      "type": "VEC3"
    },
    {
      "bufferView": 1,
      "byteOffset": 407288,
      "componentType": 5126,
      "count": 6194,
      "max": [
        0.0,
        0.0
      ],
      "min": [
        0.0,
        0.0
      ],
      "type": "VEC2"
    },
    {
      "bufferView": 0,
      "byteOffset": 420144,
      "componentType": 5125,
      "count": 35424,
      "type": "SCALAR"
    },
    {
      "bufferView": 2,
      "byteOffset": 774600,
      "componentType": 5126,
      "count": 15755,
      "max": [
        0.22436000406742096,
        1.2939000129699707,
        0.9572799801826477
      ],
      "min": [
        -0.9551900029182434,
        -0.46880999207496643,
        0.2575500011444092
      ],
      "type": "VEC3"
    },
    {
      "bufferView": 2,
      "byteOffset": 963660,
      "componentType": 5126,
      "count": 15755,
      "max": [
        0.9999906420707703,
        0.9999999403953552,
        0.9999987483024597
      ],
      "min": [
        -0.9999905228614807,
        -0.9996554851531982,
        -0.999980628490448
      ],
      "type": "VEC3"
    },
    {
      "bufferView": 3,
      "byteOffset": 397280,
      "componentType": 5126,
      "count": 15755,
      "max": [
        0.9971701502799988,
        0.9999827146530151,
        0.9992282390594482,
        1.0
      ],
      "min": [
        -0.9998564124107361,
        -0.7043489217758179,
        -0.9996538758277893,
        -1.0
      ],
      "type": "VEC4"
    },
    {
      "bufferView": 1,
      "byteOffset": 456840,
      "componentType": 5126,
      "count": 15755,
      "max": [
        9.732259750366211,
        9.017359733581543
      ],
      "min": [
        -1.7188400030136108,
        -2.8574299812316895
      ],
      "type": "VEC2"
    },
    {
      "bufferView": 1,
      "byteOffset": 582880,
      "componentType": 5126,
      "count": 15755,
      "max": [
        9.732259750366211,
        9.017359733581543
      ],
      "min": [
        -1.7188400030136108,
        -2.8574299812316895
      ],
      "type": "VEC2"
    },
    {
      "bufferView": 0,
      "byteOffset": 561840,
      "componentType": 5125,
      "count": 78144,
      "type": "SCALAR"
    },
    {
      "bufferView": 2,
      "byteOffset": 1152720,
      "componentType": 5126,
      "count": 7081,
      "max": [
        0.33483999967575073,
        0.35916000604629517,
        0.9687600135803223
      ],
      "min": [
        -0.33483999967575073,
        -0.3105199933052063,
        0.2717899978160858
      ],
      "type": "VEC3"
    },
    {
      "bufferView": 2,
      "byteOffset": 1237692,
      "componentType": 5126,
      "count": 7081,
      "max": [
        0.9993081092834473,
        0.9993188381195068,
        0.9997360706329346
      ],
      "min": [
        -0.9993081092834473,
        -0.9993188381195068,
        -0.9944970607757568
      ],
      "type": "VEC3"
    },
    {
      "bufferView": 3,
      "byteOffset": 649360,
      "componentType": 5126,
      "count": 7081,
      "max": [
        0.9999962449073792,
        0.9999970197677612,
        0.8433074355125427,
        1.0
      ],
      "min": [
        -0.9999889731407166,
        -0.9999998807907104,
        -0.8382704854011536,
        -1.0
      ],
      "type": "VEC4"
    },
    {
      "bufferView": 1,
      "byteOffset": 708920,
      "componentType": 5126,
      "count": 7081,
      "max": [
        1.0236899852752686,
        1.1953999996185303
      ],
      "min": [
        -0.02369000017642975,
        -0.6819499731063843
      ],
      "type": "VEC2"
    },
    {
      "bufferView": 1,
      "byteOffset": 765568,
      "componentType": 5126,
      "count": 7081,
      "max": [
        1.0236899852752686,
        1.1953999996185303
      ],
      "min": [
        -0.02369000017642975,
        -0.6819499731063843
      ],
      "type": "VEC2"
    },
    {
      "bufferView": 1,
      "byteOffset": 822216,
      "componentType": 5126,
      "count": 7081,
      "max": [
        1.0236899852752686,
        1.1953999996185303
      ],
      "min": [
        -0.02369000017642975,
        -0.6819499731063843
      ],
      "type": "VEC2"
    },
    {
      "bufferView": 0,
      "byteOffset": 874416,
      "componentType": 5125,
      "count": 38016,
      "type": "SCALAR"
    }
  ],
  "asset": {
    "extras": {
      "author": "3DHaupt (https://sketchfab.com/dennish2010)",
      "license": "CC-BY-NC-4.0 (http://creativecommons.org/licenses/by-nc/4.0/)",
      "source": "https://sketchfab.com/3d-models/coffee-machine-qfiV50bxw8dkuLcZGFY0TRtsTGD",
      "title": "Coffee Machine"
    },
    "generator": "Sketchfab-12.59.0",
    "version": "2.0"
  },
  "bufferViews": [
    {
      "buffer": 0,
      "byteLength": 1026480,
      "name": "floatBufferViews",
      "target": 34963
    },
    {
      "buffer": 0,
      "byteLength": 878864,
      "byteOffset": 1026480,
      "byteStride": 8,
      "name": "floatBufferViews",
      "target": 34962
    },
    {
      "buffer": 0,
      "byteLength": 1322664,
      "byteOffset": 1905344,
      "byteStride": 12,
      "name": "floatBufferViews",
      "target": 34962
    },
    {
      "buffer": 0,
      "byteLength": 762656,
      "byteOffset": 3228008,
      "byteStride": 16,
      "name": "floatBufferViews",
      "target": 34962
    }
  ],
  "buffers": [
    {
      "byteLength": 3990664,
      "uri": "scene.bin"
    }
  ],
  "images": [
    {
      "uri": "textures/B_3.003_baseColor.jpeg"
    },
    {
      "uri": "textures/B_3.003_normal.png"
    },
    {
      "uri": "textures/material_8_normal.png"
    }
  ],
  "materials": [
    {
      "doubleSided": true,
      "name": "Material.002",
      "pbrMetallicRoughness": {
        "baseColorFactor": [
          0.8000000119,
          0.8000000119,
          0.8000000119,
          1.0
        ],
        "metallicFactor": 0.0,
        "roughnessFactor": 0.6
      }
    },
    {
      "doubleSided": true,
      "name": "B_3.003",
      "normalTexture": {
        "index": 1,
        "scale": 0.200000003
      },
      "pbrMetallicRoughness": {
        "baseColorTexture": {
          "index": 0
        },
        "metallicFactor": 0.0,
        "roughnessFactor": 0.6
      }
    },
    {
      "doubleSided": true,
      "name": "W_3.003",
      "normalTexture": {
        "index": 1,
        "scale": 0.200000003
      },
      "pbrMetallicRoughness": {
        "baseColorFactor": [
          0.6370021412,
          0.6370021412,
          0.6370021412,
          1.0
        ],
        "metallicFactor": 0.0,
        "roughnessFactor": 0.3728511978
      }
    },
    {
      "doubleSided": true,
      "name": "S_3.003",
      "normalTexture": {
        "index": 1,
        "scale": 0.200000003
      },
      "pbrMetallicRoughness": {
        "baseColorTexture": {
          "index": 0
        },
        "metallicFactor": 0.0,
        "roughnessFactor": 0.6
      }
    },
    {
      "doubleSided": true,
      "name": "R_2.003",
      "pbrMetallicRoughness": {
        "baseColorFactor": [
          1.0,
          0.0,
          0.0,
          1.0
        ],
        "metallicFactor": 0.0,
        "roughnessFactor": 0.6
      }
    },
    {
      "doubleSided": true,
      "name": "Material.009",
      "pbrMetallicRoughness": {
        "baseColorFactor": [
          0.8000000119,
          0.8000000119,
          0.8000000119,
          1.0
        ],
        "roughnessFactor": 0.2407757261
      }
    },
    {
      "alphaMode": "BLEND",
      "doubleSided": true,
      "name": "Glass",
      "pbrMetallicRoughness": {
        "baseColorFactor": [
          1.0,
          1.0,
          1.0,
          0.03
        ],
        "roughnessFactor": 0.1087002544
      }
    },
    {
      "doubleSided": true,
      "name": "material",
      "normalTexture": {
        "index": 1,
        "scale": 0.200000003
      },
      "pbrMetallicRoughness": {
        "baseColorTexture": {
          "index": 0
        },
        "metallicFactor": 0.0,
        "roughnessFactor": 0.6
      }
    },
    {
      "doubleSided": true,
      "name": "material_8",
      "normalTexture": {
        "index": 2,
        "scale": 0.0500000007
      },
      "pbrMetallicRoughness": {
        "baseColorTexture": {
          "index": 0
        },
        "metallicFactor": 0.0,
        "roughnessFactor": 0.6
      }
    }
  ],
  "meshes": [
    {
      "name": "Plane_0",
      "primitives": [
        {
          "attributes": {
            "NORMAL": 1,
            "POSITION": 0,
            "TEXCOORD_0": 2
          },
          "indices": 3,
          "material": 0,
          "mode": 4
        }
      ]
    },
    {
      "name": "Plane_1",
      "primitives": [
        {
          "attributes": {
            "NORMAL": 5,
            "POSITION": 4,
            "TANGENT": 6,
            "TEXCOORD_0": 7,
            "TEXCOORD_1": 8
          },
          "indices": 9,
          "material": 1,
          "mode": 4
        }
      ]
    },
    {
      "name": "Plane_2",
      "primitives": [
        {
          "attributes": {
            "NORMAL": 11,
            "POSITION": 10,
            "TANGENT": 12,
            "TEXCOORD_0": 13,
            "TEXCOORD_1": 14
          },
          "indices": 15,
          "material": 2,
          "mode": 4
        }
      ]
    },
    {
      "name": "Plane_3",
      "primitives": [
        {
          "attributes": {
            "NORMAL": 17,
            "POSITION": 16,
            "TANGENT": 18,
            "TEXCOORD_0": 19,
            "TEXCOORD_1": 20
          },
          "indices": 21,
          "material": 3,
          "mode": 4
        }
      ]
    },
    {
      "name": "Plane_4",
      "primitives": [
        {
          "attributes": {
            "NORMAL": 23,
            "POSITION": 22,
            "TEXCOORD_0": 24
          },
          "indices": 25,
          "material": 4,
          "mode": 4
        }
      ]
    },
    {
      "name": "Plane_5",
      "primitives": [
        {
          "attributes": {
            "NORMAL": 27,
            "POSITION": 26,
            "TEXCOORD_0": 28
          },
          "indices": 29,
          "material": 5,
          "mode": 4
        }
      ]
    },
    {
      "name": "Plane_6",
      "primitives": [
        {
          "attributes": {
            "NORMAL": 31,
            "POSITION": 30,
            "TEXCOORD_0": 32
          },
          "indices": 33,
          "material": 6,
          "mode": 4
        }
      ]
    },
    {
      "name": "Plane_7",
      "primitives": [
        {
          "attributes": {
            "NORMAL": 35,
            "POSITION": 34,
            "TANGENT": 36,
            "TEXCOORD_0": 37,
            "TEXCOORD_1": 38
          },
          "indices": 39,
          "material": 7,
          "mode": 4
        }
      ]
    },
    {
      "name": "Plane_8",
      "primitives": [
        {
          "attributes": {
            "NORMAL": 41,
            "POSITION": 40,
            "TANGENT": 42,
            "TEXCOORD_0": 43,
            "TEXCOORD_1": 44,
            "TEXCOORD_2": 45
          },
          "indices": 46,
          "material": 8,
          "mode": 4
        }
      ]
    }
  ],
  "nodes": [
    {
      "children": [
        1
      ],
      "matrix": [
        1.0,
        0.0,
        0.0,
        0.0,
        0.0,
        2.220446049250313e-16,
        -1.0,
        0.0,
        0.0,
        1.0,
        2.220446049250313e-16,
        0.0,
        0.0,
        0.0,
        0.0,
        1.0
      ],
      "name": "Sketchfab_model"
    },
    {
      "children": [
        2
      ],
      "name": "Root"
    },
    {
      "children": [
        3,
        4,
        5,
        6,
        7,
        8,
        9,
        10,
        11
      ],
      "matrix": [
        2.0211,
        0.0,
        0.0,
        0.0,
        0.0,
        2.0211,
        0.0,
        0.0,
        0.0,
        0.0,
        2.0211,
        0.0,
        0.0,
        0.0,
        0.0,
        1.0
      ],
      "name": "Plane"
    },
    {
      "mesh": 0,
      "name": "Plane_0"
    },
    {
      "mesh": 1,
      "name": "Plane_1"
    },
    {
      "mesh": 2,
      "name": "Plane_2"
    },
    {
      "mesh": 3,
      "name": "Plane_3"
    },
    {
      "mesh": 4,
      "name": "Plane_4"
    },
    {
      "mesh": 5,
      "name": "Plane_5"
    },
    {
      "mesh": 6,
      "name": "Plane_6"
    },
    {
      "mesh": 7,
      "name": "Plane_7"
    },
    {
      "mesh": 8,
      "name": "Plane_8"
    }
  ],
  "samplers": [
    {
      "magFilter": 9729,
      "minFilter": 9987,
      "wrapS": 10497,
      "wrapT": 10497
    }
  ],
  "scene": 0,
  "scenes": [
    {
      "name": "Sketchfab_Scene",
      "nodes": [
        0
      ]
    }
  ],
  "textures": [
    {
      "sampler": 0,
      "source": 0
    },
    {
      "sampler": 0,
      "source": 1
    },
    {
      "sampler": 0,
      "source": 2
    }
  ]
}
